<svg xmlns="http://www.w3.org/2000/svg" width="1600" height="2200" viewBox="0 0 1600 2200">
  <defs>
    <linearGradient id="sky" x1="0" y1="0" x2="1" y2="1">
      <stop offset="0" stop-color="#f7fbff"/>
      <stop offset=".48" stop-color="#ffffff"/>
      <stop offset="1" stop-color="#fff6df"/>
    </linearGradient>
    <filter id="glow">
      <feGaussianBlur stdDeviation="16" result="b"/>
      <feMerge><feMergeNode in="b"/><feMergeNode in="SourceGraphic"/></feMerge>
    </filter>
  </defs>
  <rect width="1600" height="2200" rx="72" fill="url(#sky)"/>
  <g stroke="#b8eaff" stroke-width="2" opacity=".9">
    <path d="M0 410h1600M0 620h1600M0 830h1600M0 1040h1600"/>
    <path d="M220 0v1300M520 0v1300M820 0v1300M1120 0v1300M1420 0v1300"/>
  </g>
  <text x="120" y="170" font-family="Arial, sans-serif" font-size="42" font-weight="700" fill="#111">CULTURE CITY INTERFACE</text>
  <text x="120" y="500" font-family="Georgia, serif" font-size="136" font-weight="700" fill="#111" letter-spacing="-8">未来城</text>
  <text x="120" y="595" font-family="Arial, sans-serif" font-size="34" fill="#444">明亮科幻，不走暗黑赛博</text>
  <g transform="translate(120 760)">
    <rect width="1360" height="620" rx="48" fill="#fff" opacity=".9"/>
    <path d="M100 500L320 240L520 390L720 130L920 370L1130 220L1260 500Z" fill="#e8fbff" stroke="#111" stroke-width="6"/>
    <circle cx="1060" cy="150" r="74" fill="#d8ff52" filter="url(#glow)"/>
    <g fill="#111">
      <rect x="145" y="445" width="70" height="120" rx="12"/>
      <rect x="250" y="360" width="92" height="205" rx="14"/>
      <rect x="390" y="415" width="76" height="150" rx="12"/>
      <rect x="980" y="390" width="80" height="175" rx="12"/>
      <rect x="1110" y="330" width="100" height="235" rx="14"/>
    </g>
  </g>
  <g transform="translate(120 1540)" font-family="Arial, sans-serif">
    <rect width="1360" height="210" rx="40" fill="#111"/>
    <text x="60" y="90" font-size="34" font-weight="700" fill="#fff">城市文化地图</text>
    <text x="60" y="150" font-size="26" fill="#d8ff52">AI visual route / video topics / public memory</text>
    <rect y="250" width="645" height="230" rx="40" fill="#f4f7f8"/>
    <rect x="715" y="250" width="645" height="230" rx="40" fill="#f4f7f8"/>
  </g>
</svg>
