<svg xmlns="http://www.w3.org/2000/svg" width="1600" height="2200" viewBox="0 0 1600 2200">
  <defs>
    <linearGradient id="bg" x1="0" y1="0" x2="1" y2="1">
      <stop offset="0" stop-color="#f9fff1"/>
      <stop offset=".5" stop-color="#ffffff"/>
      <stop offset="1" stop-color="#ecf7ff"/>
    </linearGradient>
    <radialGradient id="orb" cx="50%" cy="42%" r="45%">
      <stop offset="0" stop-color="#d8ff52" stop-opacity=".95"/>
      <stop offset=".45" stop-color="#87f7ff" stop-opacity=".58"/>
      <stop offset="1" stop-color="#fff" stop-opacity="0"/>
    </radialGradient>
    <filter id="soft" x="-20%" y="-20%" width="140%" height="140%">
      <feGaussianBlur stdDeviation="18"/>
    </filter>
  </defs>
  <rect width="1600" height="2200" rx="72" fill="url(#bg)"/>
  <circle cx="795" cy="580" r="560" fill="url(#orb)"/>
  <g opacity=".78" stroke="#111" stroke-width="2">
    <path d="M360 470 C560 260, 1030 260, 1240 480" fill="none"/>
    <path d="M340 700 C560 930, 1040 930, 1260 690" fill="none"/>
    <path d="M510 355 C600 745, 970 780, 1088 360" fill="none"/>
    <path d="M510 815 C590 440, 1010 420, 1090 815" fill="none"/>
  </g>
  <g fill="#111">
    <text x="120" y="170" font-family="Arial, sans-serif" font-size="42" font-weight="700">SHRUB / AI CONTENT LAB</text>
    <text x="120" y="500" font-family="Georgia, serif" font-size="136" font-weight="700" letter-spacing="-8">AI 共生</text>
    <text x="120" y="595" font-family="Arial, sans-serif" font-size="34">用 AIGC 方法把文化资源转译为可传播内容</text>
  </g>
  <g transform="translate(120 820)">
    <rect width="1360" height="530" rx="48" fill="#fff" filter="url(#soft)" opacity=".45"/>
    <rect width="1360" height="530" rx="48" fill="#fff" opacity=".86"/>
    <g transform="translate(70 70)">
      <rect width="330" height="390" rx="36" fill="#111"/>
      <circle cx="165" cy="155" r="78" fill="#d8ff52"/>
      <path d="M110 270h110M110 310h180M110 350h140" stroke="#fff" stroke-width="16" stroke-linecap="round"/>
      <rect x="455" width="360" height="180" rx="34" fill="#f0f4ea"/>
      <rect x="455" y="210" width="360" height="180" rx="34" fill="#eef9ff"/>
      <rect x="870" width="360" height="390" rx="34" fill="#f7f7f2"/>
      <path d="M920 95h250M920 145h190M920 215h250M920 265h160" stroke="#111" stroke-width="14" stroke-linecap="round" opacity=".85"/>
      <circle cx="1060" cy="315" r="38" fill="#d8ff52"/>
    </g>
  </g>
  <g transform="translate(120 1500)">
    <rect width="400" height="290" rx="42" fill="#f4f4ef"/>
    <rect x="480" width="400" height="290" rx="42" fill="#111"/>
    <rect x="960" width="400" height="290" rx="42" fill="#f4f4ef"/>
    <text x="48" y="92" font-family="Arial, sans-serif" font-size="30" font-weight="700">Prompt</text>
    <text x="528" y="92" font-family="Arial, sans-serif" font-size="30" font-weight="700" fill="#fff">Visual</text>
    <text x="1008" y="92" font-family="Arial, sans-serif" font-size="30" font-weight="700">Publish</text>
    <path d="M48 155h240M48 205h300M528 155h240M528 205h300M1008 155h240M1008 205h300" stroke="#999" stroke-width="12" stroke-linecap="round"/>
  </g>
</svg>
